<?xml version="1.0" standalone="no"?>
<!DOCTYPE svg PUBLIC "-//W3C//DTD SVG 20010904//EN"
 "http://www.w3.org/TR/2001/REC-SVG-20010904/DTD/svg10.dtd">
<svg version="1.0" xmlns="http://www.w3.org/2000/svg"
 width="4000.000000pt" height="4000.000000pt" viewBox="0 0 4000.000000 4000.000000"
 preserveAspectRatio="xMidYMid meet">

<g transform="translate(0.000000,4000.000000) scale(0.100000,-0.100000)"
fill="#000000" stroke="none">
<path d="M35000 37185 l0 -315 -935 0 -935 0 0 -310 0 -310 -625 0 -625 0 0
-315 0 -315 -625 0 -625 0 0 -310 0 -310 -315 0 -315 0 0 -315 0 -315 -310 0
-310 0 0 -310 0 -310 -315 0 -315 0 0 -315 0 -315 -310 0 -310 0 0 -310 0
-310 310 0 310 0 0 -315 0 -315 -310 0 -310 0 0 -310 0 -310 -315 0 -315 0 0
310 0 310 -310 0 -310 0 0 -310 0 -310 310 0 310 0 0 -315 0 -315 -310 0 -310
0 0 -310 0 -310 -315 0 -315 0 0 310 0 310 -310 0 -310 0 0 -310 0 -310 310 0
310 0 0 -315 0 -315 -310 0 -310 0 0 -310 0 -310 620 0 620 0 0 -310 0 -310
-935 0 -935 0 0 620 0 620 -310 0 -310 0 0 -310 0 -310 -315 0 -315 0 0 -310
0 -310 313 -2 312 -3 3 -312 2 -313 -315 0 -315 0 0 310 0 310 -310 0 -310 0
0 -310 0 -310 310 0 310 0 0 -315 0 -315 -310 0 -310 0 0 -310 0 -310 -315 0
-315 0 0 310 0 310 -310 0 -310 0 0 -310 0 -310 310 0 310 0 0 -315 0 -315
-310 0 -310 0 0 -310 0 -310 -315 0 -315 0 0 310 0 310 -310 0 -310 0 0 -310
0 -310 310 0 310 0 0 -315 0 -315 -310 0 -310 0 0 -310 0 -310 -315 0 -315 0
0 310 0 310 -310 0 -310 0 0 -310 0 -310 310 0 310 0 0 -315 0 -315 -310 0
-310 0 0 -310 0 -310 -315 0 -315 0 0 310 0 310 310 0 310 0 0 315 0 315 -310
0 -310 0 0 -315 0 -315 -310 0 -310 0 0 -310 0 -310 -315 0 -315 0 0 -315 0
-315 -310 0 -310 0 0 -310 0 -310 310 0 310 0 0 -315 0 -315 -310 0 -310 0 0
-310 0 -310 -315 0 -315 0 0 310 0 310 -310 0 -310 0 0 -310 0 -310 310 0 310
0 0 -315 0 -315 -310 0 -310 0 0 -310 0 -310 -315 0 -315 0 0 310 0 310 -310
0 -310 0 0 -310 0 -310 310 0 310 0 0 -315 0 -315 -310 0 -310 0 0 -310 0
-310 -315 0 -315 0 0 310 0 310 -310 0 -310 0 0 -310 0 -310 -315 0 -315 0 0
-315 0 -315 -315 0 -315 0 0 -310 0 -310 -310 0 -310 0 0 310 0 310 -310 0
-310 0 0 315 0 315 310 0 310 0 0 -310 0 -310 310 0 310 0 0 310 0 310 -310 0
-310 0 0 310 0 310 -312 2 -313 3 -3 313 -2 312 -310 0 -310 0 0 625 0 625
-315 0 -315 0 0 310 0 310 -1560 0 -1560 0 0 -310 0 -310 -310 0 -310 0 0
-1560 0 -1560 310 0 310 0 0 -315 0 -315 625 0 625 0 0 -310 0 -310 313 -2
312 -3 3 -312 2 -313 310 0 310 0 0 -310 0 -310 313 -2 312 -3 3 -312 2 -313
310 0 310 0 0 -310 0 -310 313 -2 312 -3 3 -312 2 -313 -315 0 -315 0 0 -315
0 -315 -310 0 -310 0 0 -310 0 -310 -315 0 -315 0 0 -315 0 -315 -310 0 -310
0 0 -310 0 -310 -315 0 -315 0 0 -315 0 -315 -310 0 -310 0 0 -310 0 -310
-315 0 -315 0 0 -315 0 -315 -310 0 -310 0 0 -310 0 -310 -1565 0 -1565 0 0
-1560 0 -1560 313 -2 312 -3 3 -312 2 -313 310 0 310 0 0 -310 0 -310 313 -2
312 -3 3 -312 2 -313 310 0 310 0 0 -310 0 -310 1560 0 1560 0 0 1560 0 1560
315 0 315 0 0 315 0 315 310 0 310 0 0 310 0 310 315 0 315 0 0 -2810 0 -2810
310 0 310 0 0 310 0 310 315 0 315 0 0 3125 0 3125 315 0 315 0 0 -1560 0
-1560 310 0 310 0 0 -940 0 -940 315 0 315 0 0 -310 0 -310 310 0 310 0 0
1245 0 1245 -312 2 -313 3 -3 1248 -2 1247 -310 0 -310 0 0 1255 0 1255 310 0
310 0 0 310 0 310 315 0 315 0 0 -310 0 -310 313 -2 312 -3 3 -312 2 -313 310
0 310 0 0 -310 0 -310 313 -2 312 -3 3 -312 2 -313 310 0 310 0 0 -310 0 -310
313 -2 312 -3 3 -622 2 -623 310 0 310 0 0 -315 0 -315 1560 0 1560 0 2 313 3
312 313 3 312 2 0 1560 0 1560 -315 0 -315 0 0 310 0 310 -625 0 -625 0 0 315
0 315 -310 0 -310 0 0 310 0 310 -315 0 -315 0 0 315 0 315 -310 0 -310 0 0
315 0 315 310 0 310 0 0 310 0 310 315 0 315 0 0 315 0 315 310 0 310 0 0 310
0 310 315 0 315 0 0 315 0 315 310 0 310 0 0 310 0 310 315 0 315 0 0 315 0
315 310 0 310 0 0 310 0 310 315 0 315 0 0 315 0 315 310 0 310 0 0 310 0 310
315 0 315 0 0 315 0 315 310 0 310 0 0 310 0 310 315 0 315 0 0 315 0 315 310
0 310 0 0 310 0 310 315 0 315 0 0 315 0 315 310 0 310 0 0 310 0 310 315 0
315 0 0 315 0 315 310 0 310 0 0 310 0 310 315 0 315 0 0 315 0 315 310 0 310
0 0 310 0 310 315 0 315 0 0 315 0 315 310 0 310 0 0 310 0 310 315 0 315 0 0
315 0 315 310 0 310 0 0 310 0 310 315 0 315 0 0 315 0 315 310 0 310 0 0 310
0 310 315 0 315 0 0 315 0 315 310 0 310 0 0 310 0 310 315 0 315 0 0 315 0
315 310 0 310 0 0 310 0 310 315 0 315 0 0 625 0 625 310 0 310 0 0 625 0 625
315 0 315 0 0 940 0 940 310 0 310 0 0 1560 0 1560 -1560 0 -1560 0 0 -315z
m2500 -625 l0 -310 -310 0 -310 0 0 -310 0 -310 -315 0 -315 0 0 -315 0 -315
-315 0 -315 0 0 -310 0 -310 -310 0 -310 0 0 -315 0 -315 -315 0 -315 0 0
-310 0 -310 -310 0 -310 0 0 -315 0 -315 -315 0 -315 0 0 -310 0 -310 -310 0
-310 0 0 -315 0 -315 -315 0 -315 0 0 -310 0 -310 -310 0 -310 0 0 -315 0
-315 -315 0 -315 0 0 -310 0 -310 -310 0 -310 0 0 -315 0 -315 -315 0 -315 0
0 -310 0 -310 -310 0 -310 0 0 310 0 310 -940 0 -940 0 0 315 0 315 1565 0
1565 0 0 310 0 310 310 0 310 0 0 315 0 315 315 0 315 0 0 310 0 310 310 0
310 0 0 315 0 315 315 0 315 0 0 310 0 310 310 0 310 0 0 315 0 315 315 0 315
0 0 310 0 310 310 0 310 0 0 315 0 315 315 0 315 0 0 310 0 310 310 0 310 0 0
315 0 315 315 0 315 0 0 310 0 310 -625 0 -625 0 0 -315 0 -315 -935 0 -935 0
0 -310 0 -310 310 0 310 0 0 -315 0 -315 -625 0 -625 0 0 315 0 315 -310 0
-310 0 0 310 0 310 625 0 625 0 0 315 0 315 935 0 935 0 0 310 0 310 1250 0
1250 0 0 -310z m-6880 -2500 l0 -310 -310 0 -310 0 0 -315 0 -315 -310 0 -310
0 0 -310 0 -310 -315 0 -315 0 0 310 0 310 315 0 315 0 0 315 0 315 310 0 310
0 0 310 0 310 310 0 310 0 0 -310z m10 -2495 l0 -315 -315 0 -315 0 0 -315 0
-315 -310 0 -310 0 0 -310 0 -310 -315 0 -315 0 0 625 0 625 310 0 310 0 0
315 0 315 630 0 630 0 0 -315z m-1880 -3755 l0 -310 -310 0 -310 0 -2 -312 -3
-313 -312 -3 -313 -2 0 -310 0 -310 -310 0 -310 0 -2 -312 -3 -313 -312 -3
-313 -2 0 -310 0 -310 -310 0 -310 0 -2 -312 -3 -313 -312 -3 -313 -2 0 -310
0 -310 -310 0 -310 0 -2 -312 -3 -313 -312 -3 -313 -2 0 -310 0 -310 -310 0
-310 0 -2 -312 -3 -313 -312 -3 -313 -2 0 -310 0 -310 -310 0 -310 0 -2 -312
-3 -313 -312 -3 -313 -2 0 -310 0 -310 -310 0 -310 0 -2 -312 -3 -313 -312 -3
-313 -2 0 -310 0 -310 -310 0 -310 0 -2 -312 -3 -313 -312 -3 -313 -2 0 -310
0 -310 -310 0 -310 0 -2 -312 -3 -313 -312 -3 -313 -2 0 -310 0 -310 -310 0
-310 0 -2 -312 -3 -313 -312 -3 -313 -2 0 -310 0 -310 -315 0 -315 0 0 -310 0
-310 -310 0 -310 0 0 -315 0 -315 -310 0 -310 0 0 315 0 315 310 0 310 0 0
310 0 310 310 0 310 0 0 315 0 315 315 0 315 0 0 310 0 310 310 0 310 0 0 315
0 315 315 0 315 0 0 310 0 310 310 0 310 0 0 315 0 315 315 0 315 0 0 310 0
310 310 0 310 0 0 935 0 935 -310 0 -310 0 0 625 0 625 309 0 309 0 7 -620 7
-620 309 0 309 0 0 -315 0 -315 310 0 310 0 0 315 0 315 315 0 315 0 0 310 0
310 310 0 310 0 0 315 0 315 315 0 315 0 0 310 0 310 310 0 310 0 0 315 0 315
315 0 315 0 0 310 0 310 310 0 310 0 0 315 0 315 315 0 315 0 0 310 0 310 310
0 310 0 0 315 0 315 315 0 315 0 0 935 0 935 315 0 315 0 0 -310 0 -310 310 0
310 0 0 310 0 310 310 0 310 0 0 310 0 310 315 0 315 0 0 -310z m-3750 -1875
l0 -315 -310 0 -310 0 0 -310 0 -310 -315 0 -315 0 0 625 0 625 625 0 625 0 0
-315z m-2500 -1870 l0 -315 -315 0 -315 0 0 315 0 315 315 0 315 0 0 -315z
m-2500 -1875 l0 -310 315 0 315 0 0 -315 0 -315 -315 0 -315 0 0 315 0 315
-310 0 -310 0 0 310 0 310 310 0 310 0 0 -310z m-1880 -630 l0 -310 -310 0
-310 0 0 310 0 310 310 0 310 0 0 -310z m-8750 -2185 l0 -625 -310 0 -310 0 0
310 0 310 -1250 0 -1250 0 0 315 0 315 1560 0 1560 0 0 -625z m630 -940 l0
-315 -310 0 -310 0 0 315 0 315 310 0 310 0 0 -315z m3750 -1250 l0 -315 -310
0 -310 0 0 -310 0 -310 -315 0 -315 0 0 310 0 310 315 0 315 0 0 315 0 315
310 0 310 0 0 -315z m8750 5 l0 -310 -310 0 -310 0 0 310 0 310 310 0 310 0 0
-310z m-7500 -625 l0 -315 -315 0 -315 0 0 315 0 315 315 0 315 0 0 -315z
m6870 -5 l0 -310 -310 0 -310 0 0 -310 0 -310 -310 0 -310 0 0 310 0 310 310
0 310 0 0 310 0 310 310 0 310 0 0 -310z m-9370 -1250 l0 -310 310 0 310 0 0
-315 0 -315 315 0 315 0 0 -310 0 -310 310 0 310 0 0 -315 0 -315 315 0 315 0
0 -310 0 -310 310 0 310 0 0 -315 0 -315 -310 0 -310 0 0 315 0 315 -315 0
-315 0 0 310 0 310 -310 0 -310 0 0 315 0 315 -315 0 -315 0 0 310 0 310 -310
0 -310 0 0 315 0 315 -310 0 -310 0 0 310 0 310 310 0 310 0 0 -310z m8120 0
l0 -310 -310 0 -310 0 0 -310 0 -310 -310 0 -310 0 0 310 0 310 310 0 310 0 0
310 0 310 310 0 310 0 0 -310z m-1250 -1250 l0 -310 -310 0 -310 0 0 -310 0
-310 -310 0 -310 0 0 310 0 310 310 0 310 0 0 310 0 310 310 0 310 0 0 -310z
m-1870 -3125 l0 -315 310 0 310 0 0 -310 0 -310 -310 0 -310 0 0 310 0 310
-310 0 -310 0 0 315 0 315 310 0 310 0 0 -315z m1870 -1875 l0 -310 -310 0
-310 0 0 310 0 310 310 0 310 0 0 -310z m1250 -627 l0 -316 -467 6 c-256 4
-535 7 -620 7 l-153 0 0 310 0 310 620 0 620 0 0 -317z m-16240 -2183 l0 -620
310 0 310 0 0 -315 0 -315 315 0 315 0 0 -310 0 -310 310 0 310 0 0 -315 0
-315 315 0 315 0 0 -310 0 -310 -315 0 -315 0 0 310 0 310 -315 0 -315 0 0
310 0 310 -310 0 -310 0 0 315 0 315 -315 0 -315 0 0 315 0 315 -310 0 -310 0
0 620 0 620 315 0 315 0 0 -620z"/>
<path d="M27500 32190 l0 -310 310 0 310 0 0 310 0 310 -310 0 -310 0 0 -310z"/>
<path d="M26250 30940 l0 -310 310 0 310 0 0 310 0 310 -310 0 -310 0 0 -310z"/>
<path d="M25000 29690 l0 -310 310 0 310 0 0 310 0 310 -310 0 -310 0 0 -310z"/>
<path d="M22500 27190 l0 -310 310 0 310 0 0 310 0 310 -310 0 -310 0 0 -310z"/>
<path d="M21250 25940 l0 -310 310 0 310 0 0 310 0 310 -310 0 -310 0 0 -310z"/>
<path d="M20000 24690 l0 -310 310 0 310 0 0 310 0 310 -310 0 -310 0 0 -310z"/>
<path d="M16250 20940 l0 -310 310 0 310 0 0 310 0 310 -310 0 -310 0 0 -310z"/>
<path d="M15000 19690 l0 -310 310 0 310 0 0 310 0 310 -310 0 -310 0 0 -310z"/>
<path d="M13750 18440 l0 -310 310 0 310 0 0 310 0 310 -310 0 -310 0 0 -310z"/>
</g>
</svg>
